<svg width="130" height="29" viewBox="0 0 130 29" fill="none" xmlns="http://www.w3.org/2000/svg">
<path d="M16.0814 14.8981L8.14946 1.19061C7.7599 1.41577 7.41852 1.72603 7.22124 2.06772L1.54537 11.8876L0.521492 13.6593C0.126304 14.3416 0.127472 15.4581 0.521868 16.14L6.70238 26.8313L7.22207 27.7307C7.41893 28.072 7.7599 28.3818 8.14946 28.6066L16.0814 14.8981Z" fill="#3F00A5"/>
<path d="M8.14893 1.1898L16.0808 14.8973H21.6327L16.2662 5.62175L21.8204 5.6178L27.1905 14.8973H32.3253C32.3253 14.4597 32.23 14.0237 32.0431 13.6858L27.0037 4.975L25.3193 2.06566C24.9245 1.38353 23.9556 0.825012 23.1669 0.825012L9.37286 0.825428C8.97872 0.825844 8.53911 0.965682 8.14893 1.1898Z" fill="#A145F6" fill-opacity="0.75"/>
<path d="M25.3193 27.7291L27.4921 23.9755L32.04 16.1161C32.2289 15.7775 32.3253 15.3384 32.3253 14.8973H27.1905L21.8208 24.1763L16.2667 24.1724L21.6322 14.8969H16.0808L8.14893 28.6051C8.53911 28.8291 8.97809 28.9695 9.37286 28.9695H23.1669C23.9556 28.9697 24.9258 28.411 25.3193 27.7291Z" fill="#8800FF"/>
<path d="M46.834 10.1054C42.508 10.1054 39.248 13.0707 39.248 17.6654C39.248 22.7988 42.358 25.8249 47.7232 25.8249C48.9071 25.8249 48.9876 25.8249 51.1975 25.8249L53.0851 22.7984C50.7675 22.7984 49.3219 22.7984 48.0488 22.7984C45.0545 22.7984 43.4869 21.6716 43.1292 18.9732H53.9455V17.579C53.9457 12.9506 51.042 10.1054 46.834 10.1054ZM43.1296 16.4528C43.4569 14.1994 44.7886 12.8903 46.864 12.8903C48.9071 12.8903 50.0627 14.2568 50.3607 16.4528H43.1296ZM64.7904 12.2683C62.7775 12.2683 60.939 13.0707 59.6927 14.5552C60.1853 10.8963 62.0799 8.41772 65.5453 8.04753C65.7059 8.02963 65.8687 8.01756 66.0376 8.0084C66.6866 6.88429 68.0843 4.46875 68.0843 4.46875C68.0238 4.46875 67.9733 4.46875 67.9302 4.46875C67.9218 4.46875 67.8649 4.46875 67.7289 4.46875C67.6954 4.46875 67.6609 4.46875 67.6161 4.46875C67.2505 4.46875 66.8543 4.46875 66.3895 4.46875C60.017 4.46875 55.7527 9.24302 55.7527 16.0085C55.7527 19.7169 56.9975 22.3839 58.6569 23.8965C60.1067 25.2326 62.1241 25.8253 63.9908 25.8253C68.257 25.8253 71.4865 22.8889 71.4865 18.8839C71.4873 15.0282 68.5858 12.2683 64.7904 12.2683ZM63.902 22.6219C61.5907 22.6219 59.9907 20.8712 59.6343 17.8755C60.7623 16.0339 62.4192 15.2663 63.961 15.2663C66.0381 15.2663 67.5162 16.8082 67.5162 18.9424C67.5162 21.1393 65.9757 22.6219 63.902 22.6219Z" fill="#A145F6"/>
<path d="M85.2416 12.0505C84.0273 10.5385 82.3669 9.70864 80.4103 9.70864C76.3214 9.70864 73.5962 13.0581 73.5962 17.5673C73.5962 22.0467 76.2929 25.4286 80.4103 25.4286C82.3669 25.4286 84.0273 24.5987 85.2416 23.0863V25.131H89.1835V4.36877H85.2416V12.0505ZM85.2416 19.9711C84.3806 21.218 83.1673 22.1068 81.6549 22.1068C79.2268 22.1068 77.5087 20.1776 77.5087 17.5673C77.5087 14.9553 79.1674 13.0304 81.5963 13.0304C83.0782 13.0304 84.3228 13.8892 85.2416 15.165V19.9711ZM98.2126 10.1057C97.232 10.1057 96.9588 10.1057 94.4232 10.1057L92.7621 13.1309C95.1334 13.1309 96.4045 13.1309 97.2633 13.1309C99.664 13.1309 100.761 14.3466 100.761 16.2142V17.7267C99.6036 16.4217 98.1529 15.919 96.524 15.919C93.322 15.919 91.0391 18.055 91.0391 20.8716C91.0391 23.69 93.2926 25.8256 96.4639 25.8256C98.183 25.8256 99.664 25.1141 100.761 23.7484V25.528H104.702V16.0659C104.702 12.2374 102.24 10.1057 98.2126 10.1057ZM100.761 21.5839C99.7247 22.8892 98.6864 23.2725 97.6781 23.2725C96.1067 23.2725 94.923 22.2358 94.923 20.8716C94.923 19.5073 96.1063 18.4708 97.7073 18.4708C98.686 18.4708 99.7243 18.825 100.76 20.1593V21.5839H100.761ZM123.325 10.1057C122.349 10.1057 122.075 10.1057 119.537 10.1057L117.876 13.1309C120.247 13.1309 121.519 13.1309 122.379 13.1309C124.777 13.1309 125.876 14.3466 125.876 16.2142V17.7267C124.719 16.4217 123.265 15.919 121.637 15.919C118.437 15.919 116.153 18.055 116.153 20.8716C116.153 23.69 118.406 25.8256 121.574 25.8256C123.296 25.8256 124.777 25.1141 125.877 23.7484V25.528H129.817V16.0659C129.816 12.2374 127.356 10.1057 123.325 10.1057ZM125.876 21.5839C124.837 22.8892 123.8 23.2725 122.793 23.2725C121.223 23.2725 120.036 22.2358 120.036 20.8716C120.036 19.5073 121.222 18.4708 122.823 18.4708C123.799 18.4708 124.837 18.825 125.876 20.1593V21.5839H125.876ZM112.596 22.4146C112.983 22.4146 113.99 22.4146 115.177 22.4146L113.086 25.8256C112.077 25.8256 112.983 25.8256 112.006 25.8256C108.597 25.8256 106.64 23.7792 106.64 20.5151V6.36792H110.581V10.1057H115.13L113.371 13.122H110.581V19.9528C110.581 21.5839 111.204 22.4146 112.596 22.4146Z" fill="#3F00A5"/>
</svg>
