<svg version="1.1" viewBox="0 0 170.7 67" xmlns="http://www.w3.org/2000/svg" xmlns:xlink="http://www.w3.org/1999/xlink">
<g fill="#fff">
<polygon id="e" transform="translate(0,4.8)" points="0 23.38 19.8 19.8 19.8 37.6 39.6 57.4 16.81 57.4 0 40.59"/>
<path d="m75.66 19.65h-2.52v-11.82h-4.33v-2.13h11.19v2.13h-4.33v11.82z"/>
<path id="h" d="m87.03 9.43c0.69 0.38 1.22 0.93 1.59 1.64 0.37 0.72 0.56 1.58 0.56 2.6v1.27h-6.98c0.03 0.95 0.29 1.69 0.8 2.21s1.23 0.78 2.17 0.78c0.66 0 1.26-0.07 1.8-0.2 0.53-0.13 1.08-0.32 1.64-0.57v1.95c-0.52 0.25-1.06 0.43-1.62 0.55s-1.24 0.18-2.03 0.18c-1.03 0-1.94-0.2-2.75-0.6-0.8-0.4-1.43-1-1.88-1.81s-0.67-1.81-0.67-3.01 0.21-2.23 0.62-3.06 0.98-1.45 1.72-1.88c0.74-0.42 1.59-0.64 2.555-0.63s1.785 0.2 2.475 0.58zm-4.05 1.91c-0.41 0.43-0.65 1.05-0.71 1.86h4.51c0-0.49-0.08-0.93-0.23-1.3-0.16-0.37-0.39-0.66-0.71-0.88-0.32-0.21-0.6909-0.32-1.281-0.32s-1.169 0.21-1.579 0.64z"/>
<path id="g" d="m93.23 19.27c-0.76-0.38-1.35-0.98-1.77-1.78s-0.64-1.83-0.64-3.08 0.23-2.36 0.68-3.18c0.46-0.81 1.07-1.41 1.86-1.8 0.78-0.38 1.67-0.58 2.66-0.58 0.59 0 1.15 0.06 1.68 0.18s0.99 0.27 1.37 0.47l-0.74 1.93c-0.35-0.14-0.73-0.27-1.13-0.38s-0.8-0.17-1.19-0.17c-0.57 0-1.06 0.13-1.46 0.39s-0.69 0.65-0.89 1.16-0.29 1.16-0.29 1.94 0.1 1.37 0.3 1.88 0.49 0.89 0.88 1.14c0.38 0.25 0.85 0.38 1.4 0.38s1.08-0.07 1.55-0.21c0.48-0.14 0.92-0.32 1.34-0.54v2.07c-0.39 0.22-0.82 0.4-1.3 0.53s-1.04 0.2-1.86 0.215-1.69-0.175-2.45-0.565z"/>
<path id="f" d="m103.6 8.3c0 0.46-0.01 0.87-0.04 1.24s-0.05 0.67-0.08 0.91h0.14c0.22-0.36 0.49-0.66 0.82-0.89s0.69-0.4 1.08-0.52c0.4-0.12 0.81-0.18 1.24-0.18 0.79 0 1.48 0.14 2.05 0.41s1.01 0.69 1.32 1.26 0.46 1.31 0.46 2.22v6.9h-2.48v-6.39c0-0.81-0.16-1.41-0.47-1.81s-0.8-0.6-1.47-0.6-1.17 0.14-1.54 0.43c-0.38 0.29-0.64 0.7-0.8 1.23s-0.23 1.19-0.23 1.97v5.16h-2.48v-14.84h2.48z"/>
<path id="d" d="m121.6 9.78c0.66 0.61 1 1.6 1 2.97v6.9h-2.46v-6.39c0-0.81-0.16-1.41-0.48-1.81s-0.81-0.6-1.48-0.6c-0.99 0-1.67 0.31-2.03 0.94s-0.55 1.52-0.55 2.7v5.16h-2.48v-10.59h1.91l0.35 1.43h0.12c0.23-0.36 0.52-0.67 0.86-0.91s0.71-0.42 1.12-0.54 0.8539-0.18 1.331-0.18c1.203 0 2.129 0.31 2.789 0.92z"/>
<path id="c" d="m126.4 4.96c0.36 0 0.68 0.1 0.96 0.29 0.27 0.2 0.41 0.53 0.41 1.02s-0.14 0.8-0.41 1.01c-0.27 0.2-0.59 0.3-0.96 0.3-0.39 0-0.72-0.1-0.99-0.3s-0.4-0.54-0.4-1.01 0.13-0.82 0.4-1.02 0.6-0.29 0.99-0.29zm1.21 4.1v10.59h-2.48v-10.59z"/>
<path id="b" d="m137.5 18.34c-0.33 0.48-0.81 0.85-1.45 1.11s-1.43 0.39-2.38 0.39c-0.74 0-1.39-0.05-1.95-0.16-0.56-0.1-1.08-0.27-1.56-0.49v-2.11c0.52 0.25 1.1 0.45 1.73 0.62 0.63 0.16 1.21 0.24 1.75 0.24 0.7 0 1.21-0.1 1.52-0.31s0.47-0.49 0.47-0.84c0-0.22-0.07-0.42-0.21-0.6s-0.38-0.35-0.74-0.54c-0.36-0.18-0.86-0.4-1.51-0.66s-1.2-0.52-1.65-0.79-0.79-0.59-1.03-0.98c-0.23-0.38-0.35-0.86-0.35-1.44 0-0.95 0.38-1.68 1.13-2.18 0.76-0.5 1.75-0.75 2.99-0.75 0.66 0 1.29 0.07 1.87 0.2s1.15 0.33 1.71 0.59l-0.74 1.76c-0.48-0.21-0.98-0.38-1.49-0.52s-0.98-0.21-1.41-0.21c-0.55 0-0.97 0.08-1.26 0.25s-0.44 0.4-0.44 0.7c0 0.23 0.07 0.43 0.21 0.6 0.14 0.16 0.4 0.33 0.76 0.5s0.87 0.38 1.52 0.63c0.64 0.25 1.18 0.51 1.63 0.78s0.79 0.6 1.02 0.99c0.23 0.38 0.34 0.88 0.345 1.52s-0.155 1.22-0.485 1.7z"/>
<path d="m79.36 38.47c-0.41 0.78-1.03 1.39-1.87 1.84-0.83 0.45-1.89 0.67-3.17 0.67-1.81 0-3.19-0.47-4.12-1.42-0.94-0.94-1.41-2.19-1.41-3.74v-8.99h2.5v8.73c0 1.13 0.26 1.96 0.78 2.49s1.3 0.79 2.33 0.79c0.73 0 1.32-0.12 1.77-0.37s0.78-0.62 1-1.12c0.21-0.5 0.32-1.1 0.32-1.81v-8.72h2.48l5e-3 9.035c0.009919 0.9621-0.205 1.835-0.615 2.615z"/>
<path d="m102.9 40.79-4.03-10.59h2.62l2.07 6.25c0.08 0.18 0.16 0.41 0.23 0.67 0.08 0.27 0.15 0.53 0.22 0.78s0.11 0.48 0.13 0.67h0.08c0.03-0.2 0.07-0.42 0.15-0.67 0.07-0.25 0.15-0.51 0.24-0.77s0.16-0.49 0.21-0.68l2.11-6.25h2.62l-4.04 10.59h-2.62z"/>
<path id="j" d="m127.6 30.03c0.23 0.02 0.41 0.05 0.56 0.09l-0.25 2.31c-0.16-0.03-0.34-0.05-0.54-0.08s-0.42-0.04-0.65-0.04c-0.34 0-0.67 0.06-1 0.18s-0.63 0.3-0.9 0.55-0.49 0.56-0.64 0.93-0.23 0.82-0.23 1.34v5.49h-2.48v-10.59h1.91l0.35 1.84h0.12c0.21-0.38 0.47-0.72 0.78-1.04 0.31-0.31 0.67-0.56 1.06-0.73 0.4-0.18 0.8318-0.2565 1.27-0.27 0.2002-0.0062 0.41-0.01 0.64 0.02z"/>
<path id="i" d="m150.1 38.92c0.29-0.06 0.55-0.13 0.8-0.21v1.84c-0.26 0.12-0.6 0.22-1.02 0.3s-0.85 0.13-1.31 0.13c-0.6 0-1.14-0.1-1.63-0.3s-0.88-0.55-1.17-1.05c-0.29-0.49-0.44-1.19-0.44-2.07v-5.51h-1.43v-1.07l1.56-0.86 0.78-2.25h1.54v2.33h3.01v1.86h-3.01v5.49c0 0.5 0.13 0.86 0.39 1.1s0.6 0.36 1.021 0.36c0.3231 0 0.6192-0.03 0.9092-0.09z"/>
<path d="m160.4 30.91c0.67 0.61 1.01 1.53 1.01 2.76v7.11h-1.76l-0.47-1.47h-0.08c-0.3 0.38-0.61 0.69-0.93 0.94s-0.69 0.43-1.1 0.55c-0.42 0.12-0.92 0.18-1.5 0.18-0.63 0-1.19-0.12-1.69-0.35s-0.9-0.59-1.18-1.07c-0.29-0.48-0.43-1.09-0.43-1.84 0-1.08 0.41-1.91 1.22-2.47 0.81-0.57 2.04-0.88 3.68-0.93l1.78-0.06v-0.45c0-0.72-0.16-1.22-0.49-1.51s-0.78-0.44-1.35-0.44c-0.51 0-1.01 0.08-1.51 0.24s-0.99 0.35-1.46 0.56l-0.74-1.72c0.52-0.29 1.13-0.51 1.82-0.68s1.43-0.255 2.209-0.255c1.307-0.0063 2.301 0.295 2.971 0.905zm-6.42-3.49c0-0.42 0.11-0.72 0.34-0.9s0.5-0.27 0.83-0.27 0.61 0.09 0.85 0.27 0.36 0.48 0.36 0.9c0 0.39-0.12 0.68-0.36 0.87s-0.52 0.28-0.85 0.28-0.6-0.09-0.83-0.28-0.34-0.48-0.34-0.87zm1.45 8.94c-0.42 0.31-0.63 0.74-0.63 1.3 0 0.5 0.15 0.86 0.45 1.1s0.68 0.36 1.15 0.36c0.72 0 1.32-0.21 1.81-0.63s0.73-1.02 0.73-1.82v-0.9l-1.281 0.03875c-1.069 0.05734-1.809 0.2412-2.229 0.5512zm2.56-8.94c0-0.42 0.11-0.72 0.34-0.9s0.51-0.27 0.85-0.27c0.31 0 0.59 0.09 0.83 0.27s0.36 0.48 0.36 0.9c0 0.39-0.12 0.68-0.36 0.87s-0.52 0.28-0.83 0.28c-0.34 0-0.62-0.09-0.85-0.28s-0.34-0.48-0.34-0.87z"/>
<path d="m79.36 58.8c-0.59 1.07-1.42 1.87-2.51 2.4s-2.39 0.8-3.9 0.8h-4.14v-13.95h4.51c1.43 0 2.67 0.26 3.7 0.78 1.04 0.52 1.83 1.28 2.38 2.28s0.835 2.228 0.835 3.719c0.005128 1.569-0.285 2.901-0.875 3.971zm-2.27-6.57c-0.34-0.7-0.84-1.23-1.49-1.57-0.66-0.35-1.47-0.52-2.43-0.52h-1.82v9.75h1.49c1.6 0 2.8-0.41 3.59-1.24s1.175-2.078 1.175-3.73c-0.003963-1.09-0.175-1.98-0.515-2.69z"/>
<path d="m114.9 62.2c-1.22 0-2.22-0.46-2.98-1.39-0.76-0.92-1.14-2.29-1.14-4.08s0.38-3.2 1.15-4.12 1.78-1.39 3.03-1.39c0.52 0 0.97 0.07 1.36 0.21 0.38 0.14 0.72 0.32 1.01 0.56 0.29 0.23 0.53 0.5 0.72 0.78h0.1c-0.03-0.21-0.06-0.5-0.09-0.89-0.03-0.38-0.05-0.73-0.05-1.03v-3.69h2.5v14.85h-1.93l-0.47-1.39h-0.1c-0.2 0.29-0.43 0.55-0.71 0.79s-0.62 0.43-1.02 0.58c-0.4 0.14-0.86 0.21-1.38 0.21zm2.67-2.79c0.38-0.51 0.57-1.3 0.57-2.35v-0.31c0-1.13-0.18-2-0.54-2.61s-1.02-0.91-1.98-0.91c-0.74 0-1.31 0.31-1.71 0.93s-0.6 1.49-0.6 2.61 0.2 1.97 0.6 2.55 0.9738 0.865 1.731 0.865c0.9054-0.0054 1.559-0.265 1.929-0.775z"/>
<use transform="rotate(180 28.7 33.5)" xlink:href="#e"/>
<use id="a" transform="translate(81.51 .01516)" xlink:href="#h"/>
<use transform="translate(-51.22,21.12)" xlink:href="#a"/>
<use transform="translate(-71.23,42.34)" xlink:href="#a"/>
<use transform="translate(-38.76,42.34)" xlink:href="#a"/>
<use transform="translate(48.63 .007088)" xlink:href="#g"/>
<use transform="translate(-30.6,21.14)" xlink:href="#d"/>
<use transform="translate(20.88,42.36)" xlink:href="#d"/>
<use transform="translate(-30.64 21.14)" xlink:href="#c"/>
<use transform="translate(14.24 21.14)" xlink:href="#c"/>
<use transform="translate(-.8876 21.14)" xlink:href="#b"/>
<use transform="translate(-28.82 42.35)" xlink:href="#b"/>
<use transform="translate(-38.99,21.22)" xlink:href="#j"/>
<use transform="translate(19.27)" xlink:href="#i"/>
<use transform="translate(48.63)" xlink:href="#f"/>
</g>
</svg>
